<svg width="49" height="32" viewBox="0 0 49 32" fill="none" xmlns="http://www.w3.org/2000/svg">
<path d="M35.2413 32L13.7587 30.4932C9.10666 30.4932 5.64686 29.6003 3.37934 27.8145C1.12645 26.0142 0 23.1323 0 19.1687V12.8313C0 8.86773 1.12645 5.99305 3.37934 4.20726C5.64686 2.40695 9.10666 1.5068 13.7587 1.5068L35.2413 0C39.8933 0 43.3458 0.900154 45.5987 2.70046C47.8662 4.48625 49 7.36094 49 11.3245V20.6755C49 24.6391 47.8662 27.521 45.5987 29.3213C43.3458 31.1071 39.8933 32 35.2413 32ZM35.2413 9.05961L13.7587 10.5664C11.4473 10.5664 10.2916 11.3214 10.2916 12.8313V19.1687C10.2916 20.6786 11.4473 21.4336 13.7587 21.4336L35.2413 22.9404C37.5527 22.9404 38.7084 22.1854 38.7084 20.6755V11.3245C38.7084 9.81458 37.5527 9.05961 35.2413 9.05961Z" fill="black"/>
</svg>
