<svg width="159" height="32" viewBox="0 0 159 32" fill="none" xmlns="http://www.w3.org/2000/svg">
<path d="M35.2413 32L13.7587 30.4932C9.10666 30.4932 5.64686 29.6003 3.37934 27.8145C1.12645 26.0142 0 23.1323 0 19.1687V12.8313C0 8.86773 1.12645 5.99305 3.37934 4.20726C5.64686 2.40695 9.10666 1.5068 13.7587 1.5068L35.2413 0C39.8933 0 43.3458 0.900154 45.5987 2.70046C47.8662 4.48625 49 7.36094 49 11.3245V20.6755C49 24.6391 47.8662 27.521 45.5987 29.3213C43.3458 31.1071 39.8933 32 35.2413 32ZM35.2413 9.05961L13.7587 10.5664C11.4473 10.5664 10.2916 11.3214 10.2916 12.8313V19.1687C10.2916 20.6786 11.4473 21.4336 13.7587 21.4336L35.2413 22.9404C37.5527 22.9404 38.7084 22.1854 38.7084 20.6755V11.3245C38.7084 9.81458 37.5527 9.05961 35.2413 9.05961Z" fill="black"/>
<path d="M66.264 25.5L61.368 12.3V25.5H58.512V8.22H62.688L67.56 22.02L72.432 8.22H76.584V25.5H73.752V12.276L68.832 25.5H66.264ZM85.1378 25.788C81.1778 25.788 78.8738 22.98 78.8738 19.26C78.8738 15.54 81.1778 12.732 85.1378 12.732C89.0738 12.732 91.3778 15.54 91.3778 19.26C91.3778 22.98 89.0738 25.788 85.1378 25.788ZM81.7058 19.26C81.7058 21.732 82.7858 23.436 85.1378 23.436C87.4658 23.436 88.5458 21.732 88.5458 19.26C88.5458 16.788 87.4658 15.084 85.1378 15.084C82.7858 15.084 81.7058 16.788 81.7058 19.26ZM101.828 17.868C101.828 16.308 101.084 15.156 99.3077 15.156C98.2757 15.156 96.2597 15.78 96.2597 18.612V25.5H93.4997V13.02H96.1637V14.772C97.0277 13.596 98.3237 12.732 100.124 12.732C103.076 12.732 104.564 14.796 104.564 17.556V25.5H101.828V17.868ZM112.958 25.788C108.998 25.788 106.694 22.98 106.694 19.26C106.694 15.54 108.998 12.732 112.958 12.732C116.894 12.732 119.198 15.54 119.198 19.26C119.198 22.98 116.894 25.788 112.958 25.788ZM109.526 19.26C109.526 21.732 110.606 23.436 112.958 23.436C115.286 23.436 116.366 21.732 116.366 19.26C116.366 16.788 115.286 15.084 112.958 15.084C110.606 15.084 109.526 16.788 109.526 19.26ZM137.913 25.5V17.964H129.513V25.5H126.561V8.22H129.513V15.276H137.913V8.22H140.865V25.5H137.913ZM143.87 25.5V8.22H151.454C155.63 8.22 157.526 10.26 157.526 13.26C157.526 14.964 156.59 16.452 154.838 17.412C156.206 17.988 156.83 19.068 157.046 20.484L157.814 25.5H154.766L154.19 21.252C153.902 19.332 152.99 18.516 151.166 18.516H146.822V25.5H143.87ZM146.822 16.092H151.142C153.422 16.092 154.478 15.108 154.478 13.404C154.478 11.7 153.422 10.716 151.142 10.716H146.822V16.092Z" fill="black"/>
</svg>
