<svg width="17" height="17" viewBox="0 0 17 17" fill="none" xmlns="http://www.w3.org/2000/svg">
<path fill-rule="evenodd" clip-rule="evenodd" d="M9.10544 16.3944V14.5107C9.10544 14.1765 8.83418 13.9052 8.49995 13.9052C8.16571 13.9052 7.89445 14.1765 7.89445 14.5107V16.3944C7.89445 16.7286 8.16571 16.9999 8.49995 16.9999C8.83418 16.9999 9.10544 16.7286 9.10544 16.3944ZM12.3224 13.1786L13.6539 14.5101C13.8907 14.7468 14.274 14.7468 14.5107 14.5101C14.7468 14.274 14.7468 13.8901 14.5107 13.6539L13.1786 12.3218C12.9425 12.0857 12.5586 12.0857 12.3224 12.3218C12.0857 12.5586 12.0857 12.9419 12.3224 13.1786ZM3.34597 14.5101L4.67806 13.1786C4.9142 12.9419 4.9142 12.5586 4.67806 12.3218C4.44192 12.0857 4.05803 12.0857 3.82189 12.3218L2.4898 13.6539C2.25365 13.8901 2.25365 14.274 2.4898 14.5101C2.72594 14.7468 3.10983 14.7468 3.34597 14.5101ZM8.4842 4.28449C6.1264 4.28449 4.21183 6.19906 4.21183 8.55747C4.21183 10.9153 6.1264 12.8298 8.4842 12.8298C10.8426 12.8298 12.7572 10.9153 12.7572 8.55747C12.7572 6.19906 10.8426 4.28449 8.4842 4.28449ZM14.5107 9.10544H16.3944C16.7286 9.10544 16.9999 8.83418 16.9999 8.49995C16.9999 8.16571 16.7286 7.89445 16.3944 7.89445H14.5107C14.1765 7.89445 13.9052 8.16571 13.9052 8.49995C13.9052 8.83418 14.1765 9.10544 14.5107 9.10544ZM0.605496 9.10544H2.48919C2.82343 9.10544 3.09469 8.83418 3.09469 8.49995C3.09469 8.16571 2.82343 7.89445 2.48919 7.89445H0.605496C0.271262 7.89445 0 8.16571 0 8.49995C0 8.83418 0.271262 9.10544 0.605496 9.10544ZM2.4898 3.34597L3.82189 4.67806C4.05803 4.9142 4.44192 4.9142 4.67806 4.67806C4.9142 4.44131 4.9142 4.05803 4.67806 3.82128L3.34597 2.4898C3.10983 2.25305 2.72594 2.25305 2.4898 2.4898C2.25365 2.72594 2.25365 3.10983 2.4898 3.34597ZM13.1786 4.67806L14.5107 3.34597C14.7468 3.10983 14.7468 2.72594 14.5107 2.4898C14.274 2.25305 13.8907 2.25305 13.6539 2.4898L12.3224 3.82128C12.0857 4.05803 12.0857 4.44131 12.3224 4.67806C12.5586 4.9142 12.9425 4.9142 13.1786 4.67806ZM9.10544 2.48919V0.605496C9.10544 0.271262 8.83418 0 8.49995 0C8.16571 0 7.89445 0.271262 7.89445 0.605496V2.48919C7.89445 2.82343 8.16571 3.09469 8.49995 3.09469C8.83418 3.09469 9.10544 2.82343 9.10544 2.48919Z" fill="#FDFDFD"/>
</svg>
